<svg width="153" height="122" viewBox="0 0 153 122" fill="none" xmlns="http://www.w3.org/2000/svg">
<path d="M57.1181 118.061C37.0394 108.424 37.8426 81.9202 62.74 77.1014C60.5998 42.2475 102.897 29.7161 121.369 65.0544C151.991 68.2199 161.526 101.195 128.597 118.061H57.1181Z" stroke="white" stroke-width="6"/>
<path d="M44.2678 80.3141C11.3392 61.8419 41.0552 9.63794 75.5902 40.1573C60.8416 50.1204 57.1974 57.3603 56.3148 72.2826C50.4361 73.7791 47.9326 75.724 44.2678 80.3141Z" stroke="#FCDE00" stroke-width="6"/>
<rect x="53.5038" y="2.00784" width="4.01568" height="16.8659" stroke="#FCDE00" stroke-width="4.01568"/>
<rect x="91.6734" y="17.2953" width="4.01568" height="16.8659" transform="rotate(43.6339 91.6734 17.2953)" stroke="#FCDE00" stroke-width="4.01568"/>
<rect x="32.4409" y="28.829" width="4.01568" height="16.8659" transform="rotate(133.15 32.4409 28.829)" stroke="#FCDE00" stroke-width="4.01568"/>
<rect x="18.9007" y="53.0759" width="4.01568" height="16.8659" transform="rotate(90.2581 18.9007 53.0759)" stroke="#FCDE00" stroke-width="4.01568"/>
<rect x="28.8776" y="80.4016" width="4.01568" height="16.8659" transform="rotate(45.6196 28.8776 80.4016)" stroke="#FCDE00" stroke-width="4.01568"/>
</svg>
